{
  "accessors": [
    {
      "bufferView": 2,
      "componentType": 5126,
      "count": 65532,
      "max": [
        5.0566396713256836,
        18.62933349609375,
        7.9286441802978516
      ],
      "min": [
        -6.6582279205322266,
        13.394306182861328,
        -9.9975557327270508
      ],
      "type": "VEC3"
    },
    {
      "bufferView": 2,
      "byteOffset": 786384,
      "componentType": 5126,
      "count": 65532,
      "max": [
        0.99999940395355225,
        0.88701218366622925,
        0.99999892711639404
      ],
      "min": [
        -0.99999988079071045,
        -0.99999034404754639,
        -0.99999821186065674
      ],
      "type": "VEC3"
    },
    {
      "bufferView": 3,
      "componentType": 5126,
      "count": 65532,
      "max": [
        1,
        0.95614606142044067,
        0.99994122982025146,
        1
      ],
      "min": [
        -0.99999988079071045,
        -0.97319239377975464,
        -0.99999487400054932,
        1
      ],
      "type": "VEC4"
    },
    {
      "bufferView": 1,
      "componentType": 5126,
      "count": 65532,
      "max": [
        0.99666398763656616,
        0.99892902374267578
      ],
      "min": [
        0.0010590000310912728,
        0.004846000112593174
      ],
      "type": "VEC2"
    },
    {
      "bufferView": 0,
      "componentType": 5125,
      "count": 364908,
      "max": [
        65531
      ],
      "min": [
        0
      ],
      "type": "SCALAR"
    },
    {
      "bufferView": 2,
      "byteOffset": 1572768,
      "componentType": 5126,
      "count": 65532,
      "max": [
        4.9567832946777344,
        14.527894973754883,
        7.9286441802978516
      ],
      "min": [
        -6.0735111236572266,
        0.087465681135654449,
        -9.10406494140625
      ],
      "type": "VEC3"
    },
    {
      "bufferView": 2,
      "byteOffset": 2359152,
      "componentType": 5126,
      "count": 65532,
      "max": [
        0.99999475479125977,
        0.98427242040634155,
        0.99999964237213135
      ],
      "min": [
        -0.99999511241912842,
        -0.99999904632568359,
        -0.99996602535247803
      ],
      "type": "VEC3"
    },
    {
      "bufferView": 3,
      "byteOffset": 1048512,
      "componentType": 5126,
      "count": 65532,
      "max": [
        1,
        0.88134384155273438,
        0.9999995231628418,
        1
      ],
      "min": [
        -0.99999946355819702,
        -0.95688807964324951,
        -0.99999058246612549,
        1
      ],
      "type": "VEC4"
    },
    {
      "bufferView": 1,
      "byteOffset": 524256,
      "componentType": 5126,
      "count": 65532,
      "max": [
        0.99796897172927856,
        0.99891901016235352
      ],
      "min": [
        0.0010379999876022339,
        0.0028470000252127647
      ],
      "type": "VEC2"
    },
    {
      "bufferView": 0,
      "byteOffset": 1459632,
      "componentType": 5125,
      "count": 357237,
      "max": [
        65531
      ],
      "min": [
        0
      ],
      "type": "SCALAR"
    },
    {
      "bufferView": 2,
      "byteOffset": 3145536,
      "componentType": 5126,
      "count": 65532,
      "max": [
        4.8363819122314453,
        5.760955810546875,
        7.5039806365966797
      ],
      "min": [
        -5.3320765495300293,
        -7.4111084938049316,
        -4.9658679962158203
      ],
      "type": "VEC3"
    },
    {
      "bufferView": 2,
      "byteOffset": 3931920,
      "componentType": 5126,
      "count": 65532,
      "max": [
        0.99998486042022705,
        0.98523217439651489,
        0.99999892711639404
      ],
      "min": [
        -0.99999344348907471,
        -0.99996078014373779,
        -0.99997997283935547
      ],
      "type": "VEC3"
    },
    {
      "bufferView": 3,
      "byteOffset": 2097024,
      "componentType": 5126,
      "count": 65532,
      "max": [
        0.99999970197677612,
        0.74596887826919556,
        0.99997222423553467,
        1
      ],
      "min": [
        -0.99999946355819702,
        -0.73883247375488281,
        -0.9999995231628418,
        1
      ],
      "type": "VEC4"
    },
    {
      "bufferView": 1,
      "byteOffset": 1048512,
      "componentType": 5126,
      "count": 65532,
      "max": [
        0.98856598138809204,
        0.99896097183227539
      ],
      "min": [
        0.001053999993018806,
        0.011389000341296196
      ],
      "type": "VEC2"
    },
    {
      "bufferView": 0,
      "byteOffset": 2888580,
      "componentType": 5125,
      "count": 355272,
      "max": [
        65531
      ],
      "min": [
        0
      ],
      "type": "SCALAR"
    },
    {
      "bufferView": 2,
      "byteOffset": 4718304,
      "componentType": 5126,
      "count": 27891,
      "max": [
        4.6262602806091309,
        -2.6322901248931885,
        7.0794291496276855
      ],
      "min": [
        -5.0682120323181152,
        -8.7568025588989258,
        -3.4015681743621826
      ],
      "type": "VEC3"
    },
    {
      "bufferView": 2,
      "byteOffset": 5052996,
      "componentType": 5126,
      "count": 27891,
      "max": [
        0.99927330017089844,
        0.64100372791290283,
        0.99985098838806152
      ],
      "min": [
        -0.99918341636657715,
        -0.99999856948852539,
        -0.9998551607131958
      ],
      "type": "VEC3"
    },
    {
      "bufferView": 3,
      "byteOffset": 3145536,
      "componentType": 5126,
      "count": 27891,
      "max": [
        1,
        0.67992663383483887,
        0.98821943998336792,
        1
      ],
      "min": [
        -0.99999576807022095,
        -0.6823045015335083,
        -0.99905681610107422,
        1
      ],
      "type": "VEC4"
    },
    {
      "bufferView": 1,
      "byteOffset": 1572768,
      "componentType": 5126,
      "count": 27891,
      "max": [
        0.8778570294380188,
        0.99891597032546997
      ],
      "min": [
        0.0011050000321120024,
        0.0043700002133846283
      ],
      "type": "VEC2"
    },
    {
      "bufferView": 0,
      "byteOffset": 4309668,
      "componentType": 5125,
      "count": 154554,
      "max": [
        27890
      ],
      "min": [
        0
      ],
      "type": "SCALAR"
    },
    {
      "bufferView": 2,
      "byteOffset": 5387688,
      "componentType": 5126,
      "count": 65532,
      "max": [
        5.0555806159973145,
        18.626855850219727,
        8.1686716079711914
      ],
      "min": [
        -6.6582279205322266,
        -1.9817267656326294,
        -9.9709300994873047
      ],
      "type": "VEC3"
    },
    {
      "bufferView": 2,
      "byteOffset": 6174072,
      "componentType": 5126,
      "count": 65532,
      "max": [
        0.99999833106994629,
        0.99806571006774902,
        0.99997329711914062
      ],
      "min": [
        -0.99999904632568359,
        -0.99999594688415527,
        -0.99999797344207764
      ],
      "type": "VEC3"
    },
    {
      "bufferView": 3,
      "byteOffset": 3591792,
      "componentType": 5126,
      "count": 65532,
      "max": [
        0.99999958276748657,
        0.8806796669960022,
        0.9999997615814209,
        1
      ],
      "min": [
        -0.9999963641166687,
        -0.95573920011520386,
        -1,
        1
      ],
      "type": "VEC4"
    },
    {
      "bufferView": 1,
      "byteOffset": 1795896,
      "componentType": 5126,
      "count": 65532,
      "max": [
        0.99903500080108643,
        0.99792397022247314
      ],
      "min": [
        0.0010450000409036875,
        0.0023050000891089439
      ],
      "type": "VEC2"
    },
    {
      "bufferView": 0,
      "byteOffset": 4927884,
      "componentType": 5125,
      "count": 332271,
      "max": [
        65531
      ],
      "min": [
        0
      ],
      "type": "SCALAR"
    },
    {
      "bufferView": 2,
      "byteOffset": 6960456,
      "componentType": 5126,
      "count": 29967,
      "max": [
        4.830510139465332,
        1.0409941673278809,
        7.4120340347290039
      ],
      "min": [
        -5.1977167129516602,
        -8.6857662200927734,
        -5.0255312919616699
      ],
      "type": "VEC3"
    },
    {
      "bufferView": 2,
      "byteOffset": 7320060,
      "componentType": 5126,
      "count": 29967,
      "max": [
        0.99996674060821533,
        0.95980072021484375,
        0.9999319314956665
      ],
      "min": [
        -0.99999523162841797,
        -0.99993300437927246,
        -0.99998235702514648
      ],
      "type": "VEC3"
    },
    {
      "bufferView": 3,
      "byteOffset": 4640304,
      "componentType": 5126,
      "count": 29967,
      "max": [
        0.99999886751174927,
        0.65442472696304321,
        0.99996662139892578,
        1
      ],
      "min": [
        -0.9999849796295166,
        -0.74049979448318481,
        -0.9999995231628418,
        1
      ],
      "type": "VEC4"
    },
    {
      "bufferView": 1,
      "byteOffset": 2320152,
      "componentType": 5126,
      "count": 29967,
      "max": [
        0.99898499250411987,
        0.99789798259735107
      ],
      "min": [
        0.0010440000332891941,
        0.026769999414682388
      ],
      "type": "VEC2"
    },
    {
      "bufferView": 0,
      "byteOffset": 6256968,
      "componentType": 5125,
      "count": 152610,
      "max": [
        29966
      ],
      "min": [
        0
      ],
      "type": "SCALAR"
    }
  ],
  "asset": {
    "extras": {
      "author": "pmanuelian (https://sketchfab.com/pmanuelian)",
      "license": "CC-BY-4.0 (http://creativecommons.org/licenses/by/4.0/)",
      "source": "https://sketchfab.com/3d-models/statue-of-senenmut-ef7c25a039f64617a068f91892b6dc08",
      "title": "Statue of Senenmut"
    },
    "generator": "Sketchfab-4.55.0",
    "version": "2.0"
  },
  "bufferViews": [
    {
      "buffer": 0,
      "byteLength": 6867408,
      "byteOffset": 0,
      "name": "floatBufferViews",
      "target": 34963
    },
    {
      "buffer": 0,
      "byteLength": 2559888,
      "byteOffset": 6867408,
      "byteStride": 8,
      "name": "floatBufferViews",
      "target": 34962
    },
    {
      "buffer": 0,
      "byteLength": 7679664,
      "byteOffset": 9427296,
      "byteStride": 12,
      "name": "floatBufferViews",
      "target": 34962
    },
    {
      "buffer": 0,
      "byteLength": 5119776,
      "byteOffset": 17106960,
      "byteStride": 16,
      "name": "floatBufferViews",
      "target": 34962
    }
  ],
  "buffers": [
    {
      "byteLength": 22226736,
      "uri": "scene.bin"
    }
  ],
  "images": [
    {
      "uri": "textures/Model_1_baseColor.png"
    },
    {
      "uri": "textures/Model_0_baseColor.png"
    }
  ],
  "materials": [
    {
      "doubleSided": true,
      "emissiveFactor": [
        0,
        0,
        0
      ],
      "name": "Model_0",
      "pbrMetallicRoughness": {
        "baseColorFactor": [
          1,
          1,
          1,
          1
        ],
        "baseColorTexture": {
          "index": 1,
          "texCoord": 0
        },
        "metallicFactor": 0,
        "roughnessFactor": 1
      }
    },
    {
      "doubleSided": true,
      "emissiveFactor": [
        0,
        0,
        0
      ],
      "name": "Model_1",
      "pbrMetallicRoughness": {
        "baseColorFactor": [
          1,
          1,
          1,
          1
        ],
        "baseColorTexture": {
          "index": 0,
          "texCoord": 0
        },
        "metallicFactor": 0,
        "roughnessFactor": 1
      }
    }
  ],
  "meshes": [
    {
      "primitives": [
        {
          "attributes": {
            "NORMAL": 1,
            "POSITION": 0,
            "TANGENT": 2,
            "TEXCOORD_0": 3
          },
          "indices": 4,
          "material": 0,
          "mode": 4
        }
      ]
    },
    {
      "primitives": [
        {
          "attributes": {
            "NORMAL": 6,
            "POSITION": 5,
            "TANGENT": 7,
            "TEXCOORD_0": 8
          },
          "indices": 9,
          "material": 0,
          "mode": 4
        }
      ]
    },
    {
      "primitives": [
        {
          "attributes": {
            "NORMAL": 11,
            "POSITION": 10,
            "TANGENT": 12,
            "TEXCOORD_0": 13
          },
          "indices": 14,
          "material": 0,
          "mode": 4
        }
      ]
    },
    {
      "primitives": [
        {
          "attributes": {
            "NORMAL": 16,
            "POSITION": 15,
            "TANGENT": 17,
            "TEXCOORD_0": 18
          },
          "indices": 19,
          "material": 0,
          "mode": 4
        }
      ]
    },
    {
      "primitives": [
        {
          "attributes": {
            "NORMAL": 21,
            "POSITION": 20,
            "TANGENT": 22,
            "TEXCOORD_0": 23
          },
          "indices": 24,
          "material": 1,
          "mode": 4
        }
      ]
    },
    {
      "primitives": [
        {
          "attributes": {
            "NORMAL": 26,
            "POSITION": 25,
            "TANGENT": 27,
            "TEXCOORD_0": 28
          },
          "indices": 29,
          "material": 1,
          "mode": 4
        }
      ]
    }
  ],
  "nodes": [
    {
      "children": [
        1
      ],
      "name": "RootNode (gltf orientation matrix)",
      "rotation": [
        -0.70710678118654746,
        -0,
        -0,
        0.70710678118654757
      ]
    },
    {
      "children": [
        2
      ],
      "matrix": [
        -1,
        0,
        0,
        0,
        0,
        0,
        -1,
        0,
        0,
        -1,
        0,
        0,
        -1.601588249206543,
        4.0218234062194824,
        4.0218234062194824,
        1
      ],
      "name": "RootNode (model correction matrix)"
    },
    {
      "children": [
        3,
        4,
        5,
        6,
        7,
        8
      ],
      "name": "Model.obj.cleaner.materialmerger.gles"
    },
    {
      "mesh": 0,
      "name": ""
    },
    {
      "mesh": 1,
      "name": ""
    },
    {
      "mesh": 2,
      "name": ""
    },
    {
      "mesh": 3,
      "name": ""
    },
    {
      "mesh": 4,
      "name": ""
    },
    {
      "mesh": 5,
      "name": ""
    }
  ],
  "samplers": [
    {
      "magFilter": 9729,
      "minFilter": 9987,
      "wrapS": 10497,
      "wrapT": 10497
    }
  ],
  "scene": 0,
  "scenes": [
    {
      "name": "OSG_Scene",
      "nodes": [
        0
      ]
    }
  ],
  "textures": [
    {
      "sampler": 0,
      "source": 0
    },
    {
      "sampler": 0,
      "source": 1
    }
  ]
}

